<svg xmlns="http://www.w3.org/2000/svg" xmlns:xlink="http://www.w3.org/1999/xlink" viewBox="0 0 58.78 65.58"><defs><style>.cls-1{fill:url(#linear-gradient);}</style><linearGradient id="linear-gradient" x1="46.26" y1="96.12" x2="-1.73" y2="-15.26" gradientUnits="userSpaceOnUse"><stop offset="0" stop-color="#5aff15"/><stop offset="1" stop-color="#0040e9"/></linearGradient></defs><title>Asset 21</title><g id="Layer_2" data-name="Layer 2"><g id="Layer_5" data-name="Layer 5"><path class="cls-1" d="M57.36,46.49A13.09,13.09,0,0,0,50,39.9a12.43,12.43,0,0,0-10,.55c-.37.18-.86.45-1.46.8a1,1,0,0,0-.36,1.23l3.56,7.22a.91.91,0,0,0,1.5.2,3.14,3.14,0,0,1,.9-.7,3.32,3.32,0,0,1,2.69-.15,3.55,3.55,0,0,1,2.06,1.88A3.44,3.44,0,0,1,49,53.69a3.56,3.56,0,0,1-1.89,2.1c-2.17,1.07-4,.09-5.48-2.92L33.06,35.51h0a18.79,18.79,0,0,0,6.79-8.31c1.32-3.14,1.43-6.54,1.38-9.89a17.51,17.51,0,0,0-2.81-8.56A18.21,18.21,0,0,0,35.3,5a17.75,17.75,0,0,0-6.65-3.87c-.32-.1-.64-.19-1-.27A30.33,30.33,0,0,0,21.52.25Q18.24.12,15,.05C10.58,0,6.2,0,1.83.3.69.38.08.61.12,1.91c.06,2.14,0,4.29,0,6.43-.31,2.35.43,3.43,3.07,3.28,2.21-.12,3.28,1.2,3.43,3.51s.29,4.44.24,6.66A16.5,16.5,0,0,0,9.42,31.94a1.3,1.3,0,0,1,0,1.78,19.57,19.57,0,0,0-2.38,5L6.59,50A4.7,4.7,0,0,1,6,52.54,3.45,3.45,0,0,1,4.09,53.8,7.87,7.87,0,0,1,2.28,54a3.05,3.05,0,0,0-1.5.17,1.11,1.11,0,0,0-.55.95c0,2.91,0,5.83-.11,8.74,0,1,.36,1.52,1.36,1.62a15.75,15.75,0,0,0,6.25-.68A14.84,14.84,0,0,0,17.89,53.06c.44-3.12.05-6.4.1-9.56,0-.16,0-.32,0-.49.1-2.47.76-4.28,3.48-4.42.83-.05,1.66-.06,2.48-.11l9.3,18.89a14.27,14.27,0,0,0,6.9,7.14,12.37,12.37,0,0,0,5.47,1,13.27,13.27,0,0,0,5.51-1.33A13.12,13.12,0,0,0,58,56.6,12.54,12.54,0,0,0,57.36,46.49Zm-39.28-24c0-1.33,0-2.67,0-4h0c0-1.63,0-3.27,0-4.9,0-.76.12-1.31,1.06-1.28,1.93.07,3.86-.19,5.76.35a7.89,7.89,0,0,1,5.81,7.77,8,8,0,0,1-6.61,7.38C20.52,28.44,18,26.16,18.08,22.54Z"/></g></g></svg>