<svg xmlns="http://www.w3.org/2000/svg" xmlns:xlink="http://www.w3.org/1999/xlink" viewBox="0 0 244 74.27"><defs><style>.cls-1{fill:url(#linear-gradient);}.cls-2{fill:url(#linear-gradient-2);}.cls-3{fill:url(#linear-gradient-3);}.cls-4{fill:url(#linear-gradient-4);}.cls-5{fill:url(#linear-gradient-5);}.cls-6{fill:url(#linear-gradient-6);}.cls-7{fill:url(#linear-gradient-7);}.cls-8{fill:url(#linear-gradient-8);}.cls-9{fill:url(#linear-gradient-9);}</style><linearGradient id="linear-gradient" x1="46.26" y1="96.12" x2="-1.73" y2="-15.26" gradientUnits="userSpaceOnUse"><stop offset="0" stop-color="#5aff15"/><stop offset="1" stop-color="#0040e9"/></linearGradient><linearGradient id="linear-gradient-2" x1="100.14" y1="-30.72" x2="55" y2="108.19" gradientUnits="userSpaceOnUse"><stop offset="0" stop-color="#f83f21"/><stop offset="1" stop-color="#f4ac02"/></linearGradient><linearGradient id="linear-gradient-3" x1="125.94" y1="-32.03" x2="78.91" y2="112.73" xlink:href="#linear-gradient-2"/><linearGradient id="linear-gradient-4" x1="150.93" y1="-26.35" x2="105.79" y2="112.59" xlink:href="#linear-gradient-2"/><linearGradient id="linear-gradient-5" x1="165.51" y1="90.51" x2="136.04" y2="13.75" xlink:href="#linear-gradient-2"/><linearGradient id="linear-gradient-6" x1="199.43" y1="-12.19" x2="167.3" y2="86.7" xlink:href="#linear-gradient-2"/><linearGradient id="linear-gradient-7" x1="216.21" y1="-6.87" x2="183.93" y2="92.48" xlink:href="#linear-gradient-2"/><linearGradient id="linear-gradient-8" x1="230.17" y1="-2.2" x2="197.86" y2="97.23" xlink:href="#linear-gradient-2"/><linearGradient id="linear-gradient-9" x1="250.11" y1="4.74" x2="217.94" y2="103.76" xlink:href="#linear-gradient-2"/></defs><title>Asset 20</title><g id="Layer_2" data-name="Layer 2"><g id="Layer_5" data-name="Layer 5"><path class="cls-1" d="M57.36,46.49A13.09,13.09,0,0,0,50,39.9a12.43,12.43,0,0,0-10,.55c-.37.18-.86.45-1.46.8a1,1,0,0,0-.36,1.23l3.56,7.22a.91.91,0,0,0,1.5.2,3.14,3.14,0,0,1,.9-.7,3.32,3.32,0,0,1,2.69-.15,3.55,3.55,0,0,1,2.06,1.88A3.44,3.44,0,0,1,49,53.69a3.56,3.56,0,0,1-1.89,2.1c-2.17,1.07-4,.09-5.48-2.92L33.06,35.51h0a18.79,18.79,0,0,0,6.79-8.31c1.32-3.14,1.43-6.54,1.38-9.89a17.51,17.51,0,0,0-2.81-8.56A18.21,18.21,0,0,0,35.3,5a17.75,17.75,0,0,0-6.65-3.87c-.32-.1-.64-.19-1-.27A30.33,30.33,0,0,0,21.52.25Q18.24.12,15,.05C10.58,0,6.2,0,1.83.3.69.38.08.61.12,1.91c.06,2.14,0,4.29,0,6.43-.31,2.35.43,3.43,3.07,3.28,2.21-.12,3.28,1.2,3.43,3.51s.29,4.44.24,6.66A16.5,16.5,0,0,0,9.42,31.94a1.3,1.3,0,0,1,0,1.78,19.57,19.57,0,0,0-2.38,5L6.59,50A4.7,4.7,0,0,1,6,52.54,3.45,3.45,0,0,1,4.09,53.8,7.87,7.87,0,0,1,2.28,54a3.05,3.05,0,0,0-1.5.17,1.11,1.11,0,0,0-.55.95c0,2.91,0,5.83-.11,8.74,0,1,.36,1.52,1.36,1.62a15.75,15.75,0,0,0,6.25-.68A14.84,14.84,0,0,0,17.89,53.06c.44-3.12.05-6.4.1-9.56,0-.16,0-.32,0-.49.1-2.47.76-4.28,3.48-4.42.83-.05,1.66-.06,2.48-.11l9.3,18.89a14.27,14.27,0,0,0,6.9,7.14,12.37,12.37,0,0,0,5.47,1,13.27,13.27,0,0,0,5.51-1.33A13.12,13.12,0,0,0,58,56.6,12.54,12.54,0,0,0,57.36,46.49Zm-39.28-24c0-1.33,0-2.67,0-4h0c0-1.63,0-3.27,0-4.9,0-.76.12-1.31,1.06-1.28,1.93.07,3.86-.19,5.76.35a7.89,7.89,0,0,1,5.81,7.77,8,8,0,0,1-6.61,7.38C20.52,28.44,18,26.16,18.08,22.54Z"/><path class="cls-2" d="M68,54.45c0,3.24,2,5.6,5.43,5.6a6.67,6.67,0,0,0,5-1.79.87.87,0,0,1,1.2,0l2.53,2.5a.87.87,0,0,1,0,1.25,11.56,11.56,0,0,1-8.78,3.32c-5.86,0-11.48-2.7-11.48-12.87,0-8.2,4.38-12.83,10.81-12.83,6.91,0,10.81,5.11,10.81,12V53a1.42,1.42,0,0,1-1.42,1.42Zm8.86-7a4.6,4.6,0,0,0-8.29,0,7.07,7.07,0,0,0-.57,2.7h9.43A7.07,7.07,0,0,0,76.82,47.46Z"/><path class="cls-3" d="M107.43,63.09a8.61,8.61,0,0,1-6,2.26,7.27,7.27,0,0,1-6-2.51V73.48a.79.79,0,0,1-.8.79H90a.79.79,0,0,1-.79-.79V40.67a.73.73,0,0,1,.72-.73h4.55a.73.73,0,0,1,.73.73V42.3a7.49,7.49,0,0,1,6.19-2.65,8.57,8.57,0,0,1,6,2.27c2.48,2.5,2.53,6.8,2.53,10.56S109.91,60.58,107.43,63.09Zm-7.85-17.8c-3.72,0-4.19,3.09-4.19,7.19s.47,7.23,4.19,7.23,4.19-3.13,4.19-7.23S103.29,45.29,99.58,45.29Z"/><path class="cls-4" d="M133,62.27a11.14,11.14,0,0,1-15.38,0c-2.24-2.37-2.81-5.21-2.81-9.79s.57-7.38,2.81-9.74a11.11,11.11,0,0,1,15.38,0c2.24,2.36,2.81,5.2,2.81,9.74S135.24,59.9,133,62.27ZM128.19,46.4a3.88,3.88,0,0,0-2.9-1.11,3.8,3.8,0,0,0-2.86,1.11c-1.28,1.3-1.43,3.47-1.43,6.08s.15,4.82,1.43,6.12a3.8,3.8,0,0,0,2.86,1.11,3.88,3.88,0,0,0,2.9-1.11c1.29-1.3,1.43-3.52,1.43-6.12S129.48,47.7,128.19,46.4Z"/><path class="cls-5" d="M160,63.09a8.63,8.63,0,0,1-6.05,2.26,7.49,7.49,0,0,1-6.19-2.65v1.37a1,1,0,0,1-1,1h-4a1,1,0,0,1-1-1V31.78a1,1,0,0,1,1.05-1.05h4.09a1,1,0,0,1,1,1.05V42.16a7.29,7.29,0,0,1,6-2.51A8.59,8.59,0,0,1,160,41.92c2.47,2.5,2.52,6.8,2.52,10.56S162.43,60.58,160,63.09Zm-7.86-17.8c-3.72,0-4.19,3.09-4.19,7.19s.47,7.23,4.19,7.23,4.19-3.13,4.19-7.23S155.81,45.29,152.1,45.29Z"/><path class="cls-6" d="M182.67,63.82V62.75a8.47,8.47,0,0,1-6.19,2.6,8,8,0,0,1-5.86-2.22c-2-2-2.52-4.38-2.52-7.13V41.22a1.27,1.27,0,0,1,1.27-1.28H173a1.28,1.28,0,0,1,1.28,1.28V55.13c0,3.42,2.14,4.58,4.09,4.58s4.15-1.16,4.15-4.58V41.32a1.37,1.37,0,0,1,1.37-1.38h3.44a1.38,1.38,0,0,1,1.38,1.38v22.5a1.24,1.24,0,0,1-1.25,1.24h-3.56A1.24,1.24,0,0,1,182.67,63.82Z"/><path class="cls-7" d="M198.76,36.81a4,4,0,0,1-3.9-4,3.9,3.9,0,0,1,3.9-3.9,3.86,3.86,0,0,1,3.86,3.9A3.91,3.91,0,0,1,198.76,36.81Zm-3.09,26.91V41.42a1.48,1.48,0,0,1,1.48-1.48h3.23a1.48,1.48,0,0,1,1.48,1.48v22.3a1.34,1.34,0,0,1-1.35,1.34H197A1.34,1.34,0,0,1,195.67,63.72Z"/><path class="cls-8" d="M215.76,65.06c-5.09,0-7.24-3.61-7.24-7.18V32a1.3,1.3,0,0,1,1.3-1.3h3.59a1.3,1.3,0,0,1,1.3,1.3V57.49c0,1.5.62,2.27,2.19,2.27h1a1.42,1.42,0,0,1,1.42,1.42v2.46a1.42,1.42,0,0,1-1.42,1.42Z"/><path class="cls-9" d="M238,63.63V62.7a7.39,7.39,0,0,1-6.14,2.65,8.74,8.74,0,0,1-6.1-2.26c-2.47-2.51-2.52-6.85-2.52-10.61s.05-8.06,2.52-10.56a8.58,8.58,0,0,1,6-2.27,7.39,7.39,0,0,1,6.05,2.51V32.21a1.48,1.48,0,0,1,1.48-1.48h3.23A1.48,1.48,0,0,1,244,32.21V63.63a1.43,1.43,0,0,1-1.43,1.43h-3.18A1.43,1.43,0,0,1,238,63.63Zm-4.38-18.34c-3.71,0-4.19,3.09-4.19,7.19s.48,7.23,4.19,7.23,4.24-3.13,4.24-7.23S237.29,45.29,233.57,45.29Z"/></g></g></svg>